<svg id="my-svg" width="100%" xmlns="http://www.w3.org/2000/svg" xmlns:xlink="http://www.w3.org/1999/xlink" class="flowchart" style="max-width: 2098.75px; background-color: white;" viewBox="0 0 2098.74609375 781.0950927734375" role="graphics-document document" aria-roledescription="flowchart-v2"><style>#my-svg{font-family:"trebuchet ms",verdana,arial,sans-serif;font-size:16px;fill:#333;}@keyframes edge-animation-frame{from{stroke-dashoffset:0;}}@keyframes dash{to{stroke-dashoffset:0;}}#my-svg .edge-animation-slow{stroke-dasharray:9,5!important;stroke-dashoffset:900;animation:dash 50s linear infinite;stroke-linecap:round;}#my-svg .edge-animation-fast{stroke-dasharray:9,5!important;stroke-dashoffset:900;animation:dash 20s linear infinite;stroke-linecap:round;}#my-svg .error-icon{fill:#552222;}#my-svg .error-text{fill:#552222;stroke:#552222;}#my-svg .edge-thickness-normal{stroke-width:1px;}#my-svg .edge-thickness-thick{stroke-width:3.5px;}#my-svg .edge-pattern-solid{stroke-dasharray:0;}#my-svg .edge-thickness-invisible{stroke-width:0;fill:none;}#my-svg .edge-pattern-dashed{stroke-dasharray:3;}#my-svg .edge-pattern-dotted{stroke-dasharray:2;}#my-svg .marker{fill:#333333;stroke:#333333;}#my-svg .marker.cross{stroke:#333333;}#my-svg svg{font-family:"trebuchet ms",verdana,arial,sans-serif;font-size:16px;}#my-svg p{margin:0;}#my-svg .label{font-family:"trebuchet ms",verdana,arial,sans-serif;color:#333;}#my-svg .cluster-label text{fill:#333;}#my-svg .cluster-label span{color:#333;}#my-svg .cluster-label span p{background-color:transparent;}#my-svg .label text,#my-svg span{fill:#333;color:#333;}#my-svg .node rect,#my-svg .node circle,#my-svg .node ellipse,#my-svg .node polygon,#my-svg .node path{fill:#ECECFF;stroke:#9370DB;stroke-width:1px;}#my-svg .rough-node .label text,#my-svg .node .label text,#my-svg .image-shape .label,#my-svg .icon-shape .label{text-anchor:middle;}#my-svg .node .katex path{fill:#000;stroke:#000;stroke-width:1px;}#my-svg .rough-node .label,#my-svg .node .label,#my-svg .image-shape .label,#my-svg .icon-shape .label{text-align:center;}#my-svg .node.clickable{cursor:pointer;}#my-svg .root .anchor path{fill:#333333!important;stroke-width:0;stroke:#333333;}#my-svg .arrowheadPath{fill:#333333;}#my-svg .edgePath .path{stroke:#333333;stroke-width:1px;}#my-svg .flowchart-link{stroke:#333333;fill:none;}#my-svg .edgeLabel{background-color:rgba(232,232,232, 0.8);text-align:center;}#my-svg .edgeLabel p{background-color:rgba(232,232,232, 0.8);}#my-svg .edgeLabel rect{opacity:0.5;background-color:rgba(232,232,232, 0.8);fill:rgba(232,232,232, 0.8);}#my-svg .labelBkg{background-color:rgba(232, 232, 232, 0.5);}#my-svg .cluster rect{fill:#ffffde;stroke:#aaaa33;stroke-width:1px;}#my-svg .cluster text{fill:#333;}#my-svg .cluster span{color:#333;}#my-svg div.mermaidTooltip{position:absolute;text-align:center;max-width:200px;padding:2px;font-family:"trebuchet ms",verdana,arial,sans-serif;font-size:12px;background:hsl(80, 100%, 96.2745098039%);border:1px solid #aaaa33;border-radius:2px;pointer-events:none;z-index:100;}#my-svg .flowchartTitleText{text-anchor:middle;font-size:18px;fill:#333;}#my-svg rect.text{fill:none;stroke-width:0;}#my-svg .icon-shape,#my-svg .image-shape{background-color:rgba(232,232,232, 0.8);text-align:center;}#my-svg .icon-shape p,#my-svg .image-shape p{background-color:rgba(232,232,232, 0.8);padding:2px;}#my-svg .icon-shape .label rect,#my-svg .image-shape .label rect{opacity:0.5;background-color:rgba(232,232,232, 0.8);fill:rgba(232,232,232, 0.8);}#my-svg .label-icon{display:inline-block;height:1em;overflow:visible;vertical-align:-0.125em;}#my-svg .node .label-icon path{fill:currentColor;stroke:revert;stroke-width:revert;}#my-svg .node .neo-node{stroke:#9370DB;}#my-svg [data-look="neo"].node rect,#my-svg [data-look="neo"].cluster rect,#my-svg [data-look="neo"].node polygon{stroke:#9370DB;filter:drop-shadow(1px 2px 2px rgba(185, 185, 185, 1));}#my-svg [data-look="neo"].node path{stroke:#9370DB;stroke-width:1px;}#my-svg [data-look="neo"].node .outer-path{filter:drop-shadow(1px 2px 2px rgba(185, 185, 185, 1));}#my-svg [data-look="neo"].node .neo-line path{stroke:#9370DB;filter:none;}#my-svg [data-look="neo"].node circle{stroke:#9370DB;filter:drop-shadow(1px 2px 2px rgba(185, 185, 185, 1));}#my-svg [data-look="neo"].node circle .state-start{fill:#000000;}#my-svg [data-look="neo"].icon-shape .icon{fill:#9370DB;filter:drop-shadow(1px 2px 2px rgba(185, 185, 185, 1));}#my-svg [data-look="neo"].icon-shape .icon-neo path{stroke:#9370DB;filter:drop-shadow(1px 2px 2px rgba(185, 185, 185, 1));}#my-svg :root{--mermaid-font-family:"trebuchet ms",verdana,arial,sans-serif;}</style><g><marker id="my-svg_flowchart-v2-pointEnd" class="marker flowchart-v2" viewBox="0 0 10 10" refX="5" refY="5" markerUnits="userSpaceOnUse" markerWidth="8" markerHeight="8" orient="auto"><path d="M 0 0 L 10 5 L 0 10 z" class="arrowMarkerPath" style="stroke-width: 1; stroke-dasharray: 1, 0;"/></marker><marker id="my-svg_flowchart-v2-pointStart" class="marker flowchart-v2" viewBox="0 0 10 10" refX="4.5" refY="5" markerUnits="userSpaceOnUse" markerWidth="8" markerHeight="8" orient="auto"><path d="M 0 5 L 10 10 L 10 0 z" class="arrowMarkerPath" style="stroke-width: 1; stroke-dasharray: 1, 0;"/></marker><marker id="my-svg_flowchart-v2-pointEnd-margin" class="marker flowchart-v2" viewBox="0 0 11.5 14" refX="11.5" refY="7" markerUnits="userSpaceOnUse" markerWidth="10.5" markerHeight="14" orient="auto"><path d="M 0 0 L 11.5 7 L 0 14 z" class="arrowMarkerPath" style="stroke-width: 0; stroke-dasharray: 1, 0;"/></marker><marker id="my-svg_flowchart-v2-pointStart-margin" class="marker flowchart-v2" viewBox="0 0 11.5 14" refX="1" refY="7" markerUnits="userSpaceOnUse" markerWidth="11.5" markerHeight="14" orient="auto"><polygon points="0,7 11.5,14 11.5,0" class="arrowMarkerPath" style="stroke-width: 0; stroke-dasharray: 1, 0;"/></marker><marker id="my-svg_flowchart-v2-circleEnd" class="marker flowchart-v2" viewBox="0 0 10 10" refX="11" refY="5" markerUnits="userSpaceOnUse" markerWidth="11" markerHeight="11" orient="auto"><circle cx="5" cy="5" r="5" class="arrowMarkerPath" style="stroke-width: 1; stroke-dasharray: 1, 0;"/></marker><marker id="my-svg_flowchart-v2-circleStart" class="marker flowchart-v2" viewBox="0 0 10 10" refX="-1" refY="5" markerUnits="userSpaceOnUse" markerWidth="11" markerHeight="11" orient="auto"><circle cx="5" cy="5" r="5" class="arrowMarkerPath" style="stroke-width: 1; stroke-dasharray: 1, 0;"/></marker><marker id="my-svg_flowchart-v2-circleEnd-margin" class="marker flowchart-v2" viewBox="0 0 10 10" refY="5" refX="12.25" markerUnits="userSpaceOnUse" markerWidth="14" markerHeight="14" orient="auto"><circle cx="5" cy="5" r="5" class="arrowMarkerPath" style="stroke-width: 0; stroke-dasharray: 1, 0;"/></marker><marker id="my-svg_flowchart-v2-circleStart-margin" class="marker flowchart-v2" viewBox="0 0 10 10" refX="-2" refY="5" markerUnits="userSpaceOnUse" markerWidth="14" markerHeight="14" orient="auto"><circle cx="5" cy="5" r="5" class="arrowMarkerPath" style="stroke-width: 0; stroke-dasharray: 1, 0;"/></marker><marker id="my-svg_flowchart-v2-crossEnd" class="marker cross flowchart-v2" viewBox="0 0 11 11" refX="12" refY="5.2" markerUnits="userSpaceOnUse" markerWidth="11" markerHeight="11" orient="auto"><path d="M 1,1 l 9,9 M 10,1 l -9,9" class="arrowMarkerPath" style="stroke-width: 2; stroke-dasharray: 1, 0;"/></marker><marker id="my-svg_flowchart-v2-crossStart" class="marker cross flowchart-v2" viewBox="0 0 11 11" refX="-1" refY="5.2" markerUnits="userSpaceOnUse" markerWidth="11" markerHeight="11" orient="auto"><path d="M 1,1 l 9,9 M 10,1 l -9,9" class="arrowMarkerPath" style="stroke-width: 2; stroke-dasharray: 1, 0;"/></marker><marker id="my-svg_flowchart-v2-crossEnd-margin" class="marker cross flowchart-v2" viewBox="0 0 15 15" refX="17.7" refY="7.5" markerUnits="userSpaceOnUse" markerWidth="12" markerHeight="12" orient="auto"><path d="M 1,1 L 14,14 M 1,14 L 14,1" class="arrowMarkerPath" style="stroke-width: 2.5;"/></marker><marker id="my-svg_flowchart-v2-crossStart-margin" class="marker cross flowchart-v2" viewBox="0 0 15 15" refX="-3.5" refY="7.5" markerUnits="userSpaceOnUse" markerWidth="12" markerHeight="12" orient="auto"><path d="M 1,1 L 14,14 M 1,14 L 14,1" class="arrowMarkerPath" style="stroke-width: 2.5; stroke-dasharray: 1, 0;"/></marker><g class="root"><g class="clusters"><g class="cluster" id="my-svg-外部集成层" data-look="classic"><rect style="" x="8" y="622" width="1308.296875" height="151.09508514404297"/><g class="cluster-label" transform="translate(622.1484375, 622)"><foreignObject width="80" height="24"><div xmlns="http://www.w3.org/1999/xhtml" style="display: table-cell; white-space: nowrap; line-height: 1.5;"><span class="nodeLabel"><p>外部集成层</p></span></div></foreignObject></g></g><g class="cluster" id="my-svg-数据层" data-look="classic"><rect style="" x="1336.296875" y="622" width="754.44921875" height="151.09508514404297"/><g class="cluster-label" transform="translate(1689.521484375, 622)"><foreignObject width="48" height="24"><div xmlns="http://www.w3.org/1999/xhtml" style="display: table-cell; white-space: nowrap; line-height: 1.5;"><span class="nodeLabel"><p>数据层</p></span></div></foreignObject></g></g><g class="cluster" id="my-svg-业务领域层" data-look="classic"><rect style="" x="55.30859375" y="468" width="1885.15234375" height="104"/><g class="cluster-label" transform="translate(957.884765625, 468)"><foreignObject width="80" height="24"><div xmlns="http://www.w3.org/1999/xhtml" style="display: table-cell; white-space: nowrap; line-height: 1.5;"><span class="nodeLabel"><p>业务领域层</p></span></div></foreignObject></g></g><g class="cluster" id="my-svg-接入网关层" data-look="classic"><rect style="" x="296.234375" y="162" width="1793.2265625" height="256"/><g class="cluster-label" transform="translate(1152.84765625, 162)"><foreignObject width="80" height="24"><div xmlns="http://www.w3.org/1999/xhtml" style="display: table-cell; white-space: nowrap; line-height: 1.5;"><span class="nodeLabel"><p>接入网关层</p></span></div></foreignObject></g></g><g class="cluster" id="my-svg-用户接入层" data-look="classic"><rect style="" x="1422" y="8" width="419.359375" height="104"/><g class="cluster-label" transform="translate(1591.6796875, 8)"><foreignObject width="80" height="24"><div xmlns="http://www.w3.org/1999/xhtml" style="display: table-cell; white-space: nowrap; line-height: 1.5;"><span class="nodeLabel"><p>用户接入层</p></span></div></foreignObject></g></g></g><g class="edgePaths"><path d="M1734.68,87L1734.68,91.167C1734.68,95.333,1734.68,103.667,1734.68,112C1734.68,120.333,1734.68,128.667,1734.68,137C1734.68,145.333,1734.68,153.667,1728.741,161.64C1722.802,169.614,1710.925,177.228,1704.986,181.034L1699.047,184.841" id="my-svg-L_WEB_GW_0" class="edge-thickness-normal edge-pattern-solid edge-thickness-normal edge-pattern-solid flowchart-link" style=";" data-edge="true" data-et="edge" data-id="L_WEB_GW_0" data-points="W3sieCI6MTczNC42Nzk2ODc1LCJ5Ijo4N30seyJ4IjoxNzM0LjY3OTY4NzUsInkiOjExMn0seyJ4IjoxNzM0LjY3OTY4NzUsInkiOjEzN30seyJ4IjoxNzM0LjY3OTY4NzUsInkiOjE2Mn0seyJ4IjoxNjk1LjY3OTc0ODUzNTE1NjIsInkiOjE4N31d" data-look="classic" marker-end="url(#my-svg_flowchart-v2-pointEnd)"/><path d="M1535,87L1535,91.167C1535,95.333,1535,103.667,1535,112C1535,120.333,1535,128.667,1535,137C1535,145.333,1535,153.667,1540.939,161.64C1546.877,169.614,1558.755,177.228,1564.694,181.034L1570.632,184.841" id="my-svg-L_EXT_GW_0" class="edge-thickness-normal edge-pattern-solid edge-thickness-normal edge-pattern-solid flowchart-link" style=";" data-edge="true" data-et="edge" data-id="L_EXT_GW_0" data-points="W3sieCI6MTUzNSwieSI6ODd9LHsieCI6MTUzNSwieSI6MTEyfSx7IngiOjE1MzUsInkiOjEzN30seyJ4IjoxNTM1LCJ5IjoxNjJ9LHsieCI6MTU3My45OTk5Mzg5NjQ4NDM4LCJ5IjoxODd9XQ==" data-look="classic" marker-end="url(#my-svg_flowchart-v2-pointEnd)"/><path d="M1540.84,237.293L1467.716,246.077C1394.592,254.862,1248.345,272.431,1175.221,284.715C1102.098,297,1102.098,304,1102.098,307.5L1102.098,311" id="my-svg-L_GW_AUTH_0" class="edge-thickness-normal edge-pattern-solid edge-thickness-normal edge-pattern-solid flowchart-link" style=";" data-edge="true" data-et="edge" data-id="L_GW_AUTH_0" data-points="W3sieCI6MTU0MC44Mzk4NDM3NSwieSI6MjM3LjI5MjUxNjYwNzc2MzV9LHsieCI6MTEwMi4wOTc2NTYyNSwieSI6MjkwfSx7IngiOjExMDIuMDk3NjU2MjUsInkiOjMxNX1d" data-look="classic" marker-end="url(#my-svg_flowchart-v2-pointEnd)"/><path d="M1002.48,362.351L891.848,371.626C781.215,380.901,559.949,399.45,449.316,412.892C338.684,426.333,338.684,434.667,338.684,443C338.684,451.333,338.684,459.667,338.684,467.333C338.684,475,338.684,482,338.684,485.5L338.684,489" id="my-svg-L_AUTH_ORCHESTRATOR_0" class="edge-thickness-normal edge-pattern-solid edge-thickness-normal edge-pattern-solid flowchart-link" style=";" data-edge="true" data-et="edge" data-id="L_AUTH_ORCHESTRATOR_0" data-points="W3sieCI6MTAwMi40ODA0Njg3NSwieSI6MzYyLjM1MTMwMDE4MzE4MjA1fSx7IngiOjMzOC42ODM1OTM3NSwieSI6NDE4fSx7IngiOjMzOC42ODM1OTM3NSwieSI6NDQzfSx7IngiOjMzOC42ODM1OTM3NSwieSI6NDY4fSx7IngiOjMzOC42ODM1OTM3NSwieSI6NDkzfV0=" data-look="classic" marker-end="url(#my-svg_flowchart-v2-pointEnd)"/><path d="M1201.715,362.887L1304.673,372.073C1407.63,381.258,1613.546,399.629,1716.503,412.981C1819.461,426.333,1819.461,434.667,1819.461,443C1819.461,451.333,1819.461,459.667,1819.461,467.333C1819.461,475,1819.461,482,1819.461,485.5L1819.461,489" id="my-svg-L_AUTH_SCHEDULER_0" class="edge-thickness-normal edge-pattern-solid edge-thickness-normal edge-pattern-solid flowchart-link" style=";" data-edge="true" data-et="edge" data-id="L_AUTH_SCHEDULER_0" data-points="W3sieCI6MTIwMS43MTQ4NDM3NSwieSI6MzYyLjg4NzQwNzc3MDQyNjY1fSx7IngiOjE4MTkuNDYwOTM3NSwieSI6NDE4fSx7IngiOjE4MTkuNDYwOTM3NSwieSI6NDQzfSx7IngiOjE4MTkuNDYwOTM3NSwieSI6NDY4fSx7IngiOjE4MTkuNDYwOTM3NSwieSI6NDkzfV0=" data-look="classic" marker-end="url(#my-svg_flowchart-v2-pointEnd)"/><path d="M1201.715,366.666L1269.006,375.222C1336.297,383.777,1470.879,400.889,1538.17,413.611C1605.461,426.333,1605.461,434.667,1605.461,443C1605.461,451.333,1605.461,459.667,1605.461,467.333C1605.461,475,1605.461,482,1605.461,485.5L1605.461,489" id="my-svg-L_AUTH_EVALUATOR_0" class="edge-thickness-normal edge-pattern-solid edge-thickness-normal edge-pattern-solid flowchart-link" style=";" data-edge="true" data-et="edge" data-id="L_AUTH_EVALUATOR_0" data-points="W3sieCI6MTIwMS43MTQ4NDM3NSwieSI6MzY2LjY2NTgwMjY4NjYxNTh9LHsieCI6MTYwNS40NjA5Mzc1LCJ5Ijo0MTh9LHsieCI6MTYwNS40NjA5Mzc1LCJ5Ijo0NDN9LHsieCI6MTYwNS40NjA5Mzc1LCJ5Ijo0Njh9LHsieCI6MTYwNS40NjA5Mzc1LCJ5Ijo0OTN9XQ==" data-look="classic" marker-end="url(#my-svg_flowchart-v2-pointEnd)"/><path d="M1130.953,393L1134.035,397.167C1137.118,401.333,1143.284,409.667,1146.366,418C1149.449,426.333,1149.449,434.667,1149.449,443C1149.449,451.333,1149.449,459.667,1149.449,467.333C1149.449,475,1149.449,482,1149.449,485.5L1149.449,489" id="my-svg-L_AUTH_SOC_CORR_0" class="edge-thickness-normal edge-pattern-solid edge-thickness-normal edge-pattern-solid flowchart-link" style=";" data-edge="true" data-et="edge" data-id="L_AUTH_SOC_CORR_0" data-points="W3sieCI6MTEzMC45NTI1MTQ2NDg0Mzc1LCJ5IjozOTN9LHsieCI6MTE0OS40NDkyMTg3NSwieSI6NDE4fSx7IngiOjExNDkuNDQ5MjE4NzUsInkiOjQ0M30seyJ4IjoxMTQ5LjQ0OTIxODc1LCJ5Ijo0Njh9LHsieCI6MTE0OS40NDkyMTg3NSwieSI6NDkzfV0=" data-look="classic" marker-end="url(#my-svg_flowchart-v2-pointEnd)"/><path d="M1005.155,393L994.798,397.167C984.44,401.333,963.726,409.667,953.369,418C943.012,426.333,943.012,434.667,943.012,443C943.012,451.333,943.012,459.667,943.012,467.333C943.012,475,943.012,482,943.012,485.5L943.012,489" id="my-svg-L_AUTH_CASE_MATCH_0" class="edge-thickness-normal edge-pattern-solid edge-thickness-normal edge-pattern-solid flowchart-link" style=";" data-edge="true" data-et="edge" data-id="L_AUTH_CASE_MATCH_0" data-points="W3sieCI6MTAwNS4xNTQ2NjMwODU5Mzc1LCJ5IjozOTN9LHsieCI6OTQzLjAxMTcxODc1LCJ5Ijo0MTh9LHsieCI6OTQzLjAxMTcxODc1LCJ5Ijo0NDN9LHsieCI6OTQzLjAxMTcxODc1LCJ5Ijo0Njh9LHsieCI6OTQzLjAxMTcxODc1LCJ5Ijo0OTN9XQ==" data-look="classic" marker-end="url(#my-svg_flowchart-v2-pointEnd)"/><path d="M1002.48,369.025L948.365,377.188C894.249,385.35,786.017,401.675,731.901,414.004C677.785,426.333,677.785,434.667,677.785,443C677.785,451.333,677.785,459.667,677.785,467.333C677.785,475,677.785,482,677.785,485.5L677.785,489" id="my-svg-L_AUTH_SANDBOX_MGR_0" class="edge-thickness-normal edge-pattern-solid edge-thickness-normal edge-pattern-solid flowchart-link" style=";" data-edge="true" data-et="edge" data-id="L_AUTH_SANDBOX_MGR_0" data-points="W3sieCI6MTAwMi40ODA0Njg3NSwieSI6MzY5LjAyNTQ4MjM5Nzk5Njc3fSx7IngiOjY3Ny43ODUxNTYyNSwieSI6NDE4fSx7IngiOjY3Ny43ODUxNTYyNSwieSI6NDQzfSx7IngiOjY3Ny43ODUxNTYyNSwieSI6NDY4fSx7IngiOjY3Ny43ODUxNTYyNSwieSI6NDkzfV0=" data-look="classic" marker-end="url(#my-svg_flowchart-v2-pointEnd)"/><path d="M416.684,523.403L602.329,531.503C787.975,539.602,1159.267,555.801,1344.913,568.067C1530.559,580.333,1530.559,588.667,1530.559,597C1530.559,605.333,1530.559,613.667,1520.668,624.643C1510.777,635.62,1490.995,649.24,1481.104,656.05L1471.213,662.86" id="my-svg-L_ORCHESTRATOR_PG_0" class="edge-thickness-normal edge-pattern-solid edge-thickness-normal edge-pattern-solid flowchart-link" style=";" data-edge="true" data-et="edge" data-id="L_ORCHESTRATOR_PG_0" data-points="W3sieCI6NDE2LjY4MzU5Mzc1LCJ5Ijo1MjMuNDAzMDQxNDI2MzI0MX0seyJ4IjoxNTMwLjU1ODU5Mzc1LCJ5Ijo1NzJ9LHsieCI6MTUzMC41NTg1OTM3NSwieSI6NTk3fSx7IngiOjE1MzAuNTU4NTkzNzUsInkiOjYyMn0seyJ4IjoxNDY3LjkxNzk2ODc1LCJ5Ijo2NjUuMTI4NTI5NDY1NDY1OX1d" data-look="classic" marker-end="url(#my-svg_flowchart-v2-pointEnd)"/><path d="M1733.461,534.477L1696.311,540.731C1659.16,546.985,1584.859,559.492,1547.709,569.913C1510.559,580.333,1510.559,588.667,1510.559,597C1510.559,605.333,1510.559,613.667,1503.902,625.115C1497.245,636.564,1483.931,651.128,1477.274,658.41L1470.617,665.692" id="my-svg-L_SCHEDULER_PG_0" class="edge-thickness-normal edge-pattern-solid edge-thickness-normal edge-pattern-solid flowchart-link" style=";" data-edge="true" data-et="edge" data-id="L_SCHEDULER_PG_0" data-points="W3sieCI6MTczMy40NjA5Mzc1LCJ5Ijo1MzQuNDc3MDY3MjM2NTYwOX0seyJ4IjoxNTEwLjU1ODU5Mzc1LCJ5Ijo1NzJ9LHsieCI6MTUxMC41NTg1OTM3NSwieSI6NTk3fSx7IngiOjE1MTAuNTU4NTkzNzUsInkiOjYyMn0seyJ4IjoxNDY3LjkxNzk2ODc1LCJ5Ijo2NjguNjQ0MTMzNDk0NTk1M31d" data-look="classic" marker-end="url(#my-svg_flowchart-v2-pointEnd)"/><path d="M1545.8,547L1536.593,551.167C1527.386,555.333,1508.972,563.667,1499.766,572C1490.559,580.333,1490.559,588.667,1490.559,597C1490.559,605.333,1490.559,613.667,1486.658,623.101C1482.757,632.535,1474.955,643.07,1471.054,648.338L1467.153,653.606" id="my-svg-L_EVALUATOR_PG_0" class="edge-thickness-normal edge-pattern-solid edge-thickness-normal edge-pattern-solid flowchart-link" style=";" data-edge="true" data-et="edge" data-id="L_EVALUATOR_PG_0" data-points="W3sieCI6MTU0NS44MDAxMDUxNjgyNjkzLCJ5Ijo1NDd9LHsieCI6MTQ5MC41NTg1OTM3NSwieSI6NTcyfSx7IngiOjE0OTAuNTU4NTkzNzUsInkiOjU5N30seyJ4IjoxNDkwLjU1ODU5Mzc1LCJ5Ijo2MjJ9LHsieCI6MTQ2NC43NzI3MDQyODg3MjQ4LCJ5Ijo2NTYuODIwMjYxMDA2NjExMX1d" data-look="classic" marker-end="url(#my-svg_flowchart-v2-pointEnd)"/><path d="M1227.887,528.464L1295.132,535.72C1362.378,542.976,1496.868,557.488,1564.114,568.911C1631.359,580.333,1631.359,588.667,1631.359,597C1631.359,605.333,1631.359,613.667,1630.895,621.35C1630.431,629.034,1629.502,636.069,1629.038,639.586L1628.574,643.103" id="my-svg-L_SOC_CORR_ES_0" class="edge-thickness-normal edge-pattern-solid edge-thickness-normal edge-pattern-solid flowchart-link" style=";" data-edge="true" data-et="edge" data-id="L_SOC_CORR_ES_0" data-points="W3sieCI6MTIyNy44ODY3MTg3NSwieSI6NTI4LjQ2MzcxNDU0NzQxNDZ9LHsieCI6MTYzMS4zNTkzNzUsInkiOjU3Mn0seyJ4IjoxNjMxLjM1OTM3NSwieSI6NTk3fSx7IngiOjE2MzEuMzU5Mzc1LCJ5Ijo2MjJ9LHsieCI6MTYyOC4wNTAyMDA1MTg3NTY0LCJ5Ijo2NDcuMDY4NDczMDc5OTI5OH1d" data-look="classic" marker-end="url(#my-svg_flowchart-v2-pointEnd)"/><path d="M1021.012,528.551L1087.066,535.793C1153.121,543.034,1285.23,557.517,1351.285,568.925C1417.34,580.333,1417.34,588.667,1417.34,597C1417.34,605.333,1417.34,613.667,1417.524,621.826C1417.709,629.985,1418.078,637.97,1418.262,641.962L1418.447,645.955" id="my-svg-L_CASE_MATCH_PG_0" class="edge-thickness-normal edge-pattern-solid edge-thickness-normal edge-pattern-solid flowchart-link" style=";" data-edge="true" data-et="edge" data-id="L_CASE_MATCH_PG_0" data-points="W3sieCI6MTAyMS4wMTE3MTg3NSwieSI6NTI4LjU1MTA0MjU5MzE0MTZ9LHsieCI6MTQxNy4zMzk4NDM3NSwieSI6NTcyfSx7IngiOjE0MTcuMzM5ODQzNzUsInkiOjU5N30seyJ4IjoxNDE3LjMzOTg0Mzc1LCJ5Ijo2MjJ9LHsieCI6MTQxOC42MzEzMDUxMDQ1MzEsInkiOjY0OS45NTAzMTA5OTA0NjgzfV0=" data-look="classic" marker-end="url(#my-svg_flowchart-v2-pointEnd)"/><path d="M755.785,525.637L862.711,533.364C969.637,541.091,1183.488,556.546,1290.414,568.439C1397.34,580.333,1397.34,588.667,1397.34,597C1397.34,605.333,1397.34,613.667,1398.593,621.943C1399.847,630.219,1402.354,638.438,1403.607,642.548L1404.861,646.657" id="my-svg-L_SANDBOX_MGR_PG_0" class="edge-thickness-normal edge-pattern-solid edge-thickness-normal edge-pattern-solid flowchart-link" style=";" data-edge="true" data-et="edge" data-id="L_SANDBOX_MGR_PG_0" data-points="W3sieCI6NzU1Ljc4NTE1NjI1LCJ5Ijo1MjUuNjM2ODE5NjQ3NTY4NX0seyJ4IjoxMzk3LjMzOTg0Mzc1LCJ5Ijo1NzJ9LHsieCI6MTM5Ny4zMzk4NDM3NSwieSI6NTk3fSx7IngiOjEzOTcuMzM5ODQzNzUsInkiOjYyMn0seyJ4IjoxNDA2LjAyNzU5Mzg0NjM2NDcsInkiOjY1MC40ODMzMjgwOTg4NDQ3fV0=" data-look="classic" marker-end="url(#my-svg_flowchart-v2-pointEnd)"/><path d="M1831.918,547L1833.841,551.167C1835.763,555.333,1839.608,563.667,1869.944,572C1900.28,580.333,1957.107,588.667,1985.52,597C2013.934,605.333,2013.934,613.667,2013.934,622.003C2013.934,630.339,2013.934,638.677,2013.934,642.847L2013.934,647.016" id="my-svg-L_SCHEDULER_MQ_0" class="edge-thickness-normal edge-pattern-dotted edge-thickness-normal edge-pattern-solid flowchart-link" style=";" data-edge="true" data-et="edge" data-id="L_SCHEDULER_MQ_0" data-points="W3sieCI6MTgzMS45MTg0MTk0NzExNTM4LCJ5Ijo1NDd9LHsieCI6MTg0My40NTMxMjUsInkiOjU3Mn0seyJ4IjoyMDEzLjkzMzU5Mzc1LCJ5Ijo1OTd9LHsieCI6MjAxMy45MzM1OTM3NSwieSI6NjIyfSx7IngiOjIwMTMuOTMzNTkzNzUsInkiOjY1MS4wMTYwODY1NzgzNjkxfV0=" data-look="classic" marker-end="url(#my-svg_flowchart-v2-pointEnd)"/><path d="M1576.954,547L1572.555,551.167C1568.155,555.333,1559.357,563.667,1554.958,572C1550.559,580.333,1550.559,588.667,1550.559,597C1550.559,605.333,1550.559,613.667,1554.045,622.161C1557.532,630.654,1564.505,639.309,1567.992,643.636L1571.478,647.963" id="my-svg-L_EVALUATOR_ES_0" class="edge-thickness-normal edge-pattern-dotted edge-thickness-normal edge-pattern-solid flowchart-link" style=";" data-edge="true" data-et="edge" data-id="L_EVALUATOR_ES_0" data-points="W3sieCI6MTU3Ni45NTM5NTEzMjIxMTU1LCJ5Ijo1NDd9LHsieCI6MTU1MC41NTg1OTM3NSwieSI6NTcyfSx7IngiOjE1NTAuNTU4NTkzNzUsInkiOjU5N30seyJ4IjoxNTUwLjU1ODU5Mzc1LCJ5Ijo2MjJ9LHsieCI6MTU3My45ODc4MDc2MDY0NjEzLCJ5Ijo2NTEuMDc3OTE1NDk3NjYxOX1d" data-look="classic" marker-end="url(#my-svg_flowchart-v2-pointEnd)"/><path d="M260.684,538.633L237.403,544.194C214.122,549.755,167.561,560.878,144.281,570.605C121,580.333,121,588.667,121,597C121,605.333,121,613.667,121,625.258C121,636.849,121,651.698,121,659.123L121,666.548" id="my-svg-L_ORCHESTRATOR_TRAFFIC_0" class="edge-thickness-normal edge-pattern-solid edge-thickness-normal edge-pattern-solid flowchart-link" style=";" data-edge="true" data-et="edge" data-id="L_ORCHESTRATOR_TRAFFIC_0" data-points="W3sieCI6MjYwLjY4MzU5Mzc1LCJ5Ijo1MzguNjMyNTQ3OTU3MDA0N30seyJ4IjoxMjEsInkiOjU3Mn0seyJ4IjoxMjEsInkiOjU5N30seyJ4IjoxMjEsInkiOjYyMn0seyJ4IjoxMjEsInkiOjY3MC41NDc1NDI1NzIwMjE1fV0=" data-look="classic" marker-end="url(#my-svg_flowchart-v2-pointEnd)"/><path d="M337.412,547L337.216,551.167C337.019,555.333,336.627,563.667,336.431,572C336.234,580.333,336.234,588.667,336.234,597C336.234,605.333,336.234,613.667,336.234,625.258C336.234,636.849,336.234,651.698,336.234,659.123L336.234,666.548" id="my-svg-L_ORCHESTRATOR_HIDS_0" class="edge-thickness-normal edge-pattern-solid edge-thickness-normal edge-pattern-solid flowchart-link" style=";" data-edge="true" data-et="edge" data-id="L_ORCHESTRATOR_HIDS_0" data-points="W3sieCI6MzM3LjQxMTg4NDAxNDQyMzEsInkiOjU0N30seyJ4IjozMzYuMjM0Mzc1LCJ5Ijo1NzJ9LHsieCI6MzM2LjIzNDM3NSwieSI6NTk3fSx7IngiOjMzNi4yMzQzNzUsInkiOjYyMn0seyJ4IjozMzYuMjM0Mzc1LCJ5Ijo2NzAuNTQ3NTQyNTcyMDIxNX1d" data-look="classic" marker-end="url(#my-svg_flowchart-v2-pointEnd)"/><path d="M416.684,524.691L547.786,532.576C678.888,540.461,941.092,556.23,1072.195,568.282C1203.297,580.333,1203.297,588.667,1203.297,597C1203.297,605.333,1203.297,613.667,1203.297,625.258C1203.297,636.849,1203.297,651.698,1203.297,659.123L1203.297,666.548" id="my-svg-L_ORCHESTRATOR_C2_0" class="edge-thickness-normal edge-pattern-solid edge-thickness-normal edge-pattern-solid flowchart-link" style=";" data-edge="true" data-et="edge" data-id="L_ORCHESTRATOR_C2_0" data-points="W3sieCI6NDE2LjY4MzU5Mzc1LCJ5Ijo1MjQuNjkxMTE0NjE1MDA1OX0seyJ4IjoxMjAzLjI5Njg3NSwieSI6NTcyfSx7IngiOjEyMDMuMjk2ODc1LCJ5Ijo1OTd9LHsieCI6MTIwMy4yOTY4NzUsInkiOjYyMn0seyJ4IjoxMjAzLjI5Njg3NSwieSI6NjcwLjU0NzU0MjU3MjAyMTV9XQ==" data-look="classic" marker-end="url(#my-svg_flowchart-v2-pointEnd)"/><path d="M755.785,532.694L796.037,539.245C836.289,545.796,916.793,558.898,957.045,569.616C997.297,580.333,997.297,588.667,997.297,597C997.297,605.333,997.297,613.667,997.297,625.258C997.297,636.849,997.297,651.698,997.297,659.123L997.297,666.548" id="my-svg-L_SANDBOX_MGR_SANDBOX_0" class="edge-thickness-normal edge-pattern-solid edge-thickness-normal edge-pattern-solid flowchart-link" style=";" data-edge="true" data-et="edge" data-id="L_SANDBOX_MGR_SANDBOX_0" data-points="W3sieCI6NzU1Ljc4NTE1NjI1LCJ5Ijo1MzIuNjk0MzcwMDcxNTIwMn0seyJ4Ijo5OTcuMjk2ODc1LCJ5Ijo1NzJ9LHsieCI6OTk3LjI5Njg3NSwieSI6NTk3fSx7IngiOjk5Ny4yOTY4NzUsInkiOjYyMn0seyJ4Ijo5OTcuMjk2ODc1LCJ5Ijo2NzAuNTQ3NTQyNTcyMDIxNX1d" data-look="classic" marker-end="url(#my-svg_flowchart-v2-pointEnd)"/><path d="M1071.012,530.632L1020.145,537.527C969.279,544.421,867.546,558.211,816.679,569.272C765.813,580.333,765.813,588.667,765.813,597C765.813,605.333,765.813,613.667,765.813,625.258C765.813,636.849,765.813,651.698,765.813,659.123L765.813,666.548" id="my-svg-L_SOC_CORR_SIEM_0" class="edge-thickness-normal edge-pattern-solid edge-thickness-normal edge-pattern-solid flowchart-link" style=";" data-edge="true" data-et="edge" data-id="L_SOC_CORR_SIEM_0" data-points="W3sieCI6MTA3MS4wMTE3MTg3NSwieSI6NTMwLjYzMTgwMjk1NDg2MjV9LHsieCI6NzY1LjgxMjUsInkiOjU3Mn0seyJ4Ijo3NjUuODEyNSwieSI6NTk3fSx7IngiOjc2NS44MTI1LCJ5Ijo2MjJ9LHsieCI6NzY1LjgxMjUsInkiOjY3MC41NDc1NDI1NzIwMjE1fV0=" data-look="classic" marker-end="url(#my-svg_flowchart-v2-pointEnd)"/><path d="M1728.84,244.475L1767.443,252.063C1806.047,259.65,1883.254,274.825,1921.857,293.079C1960.461,311.333,1960.461,332.667,1960.461,354C1960.461,375.333,1960.461,396.667,1960.461,411.5C1960.461,426.333,1960.461,434.667,1960.461,443C1960.461,451.333,1960.461,459.667,1960.461,472.5C1960.461,485.333,1960.461,502.667,1960.461,520C1960.461,537.333,1960.461,554.667,1947.488,567.5C1934.514,580.333,1908.568,588.667,1895.594,597C1882.621,605.333,1882.621,613.667,1882.621,622.088C1882.621,630.508,1882.621,639.017,1882.621,643.271L1882.621,647.525" id="my-svg-L_GW_MINIO_0" class="edge-thickness-normal edge-pattern-dotted edge-thickness-normal edge-pattern-solid flowchart-link" style=";" data-edge="true" data-et="edge" data-id="L_GW_MINIO_0" data-points="W3sieCI6MTcyOC44Mzk4NDM3NSwieSI6MjQ0LjQ3NTQ2MTU1Nzg0MDJ9LHsieCI6MTk2MC40NjA5Mzc1LCJ5IjoyOTB9LHsieCI6MTk2MC40NjA5Mzc1LCJ5IjozNTR9LHsieCI6MTk2MC40NjA5Mzc1LCJ5Ijo0MTh9LHsieCI6MTk2MC40NjA5Mzc1LCJ5Ijo0NDN9LHsieCI6MTk2MC40NjA5Mzc1LCJ5Ijo0Njh9LHsieCI6MTk2MC40NjA5Mzc1LCJ5Ijo1MjB9LHsieCI6MTk2MC40NjA5Mzc1LCJ5Ijo1NzJ9LHsieCI6MTg4Mi42MjEwOTM3NSwieSI6NTk3fSx7IngiOjE4ODIuNjIxMDkzNzUsInkiOjYyMn0seyJ4IjoxODgyLjYyMTA5Mzc1LCJ5Ijo2NTEuNTI1NDgyMTc3NzM0NH1d" data-look="classic" marker-end="url(#my-svg_flowchart-v2-pointEnd)"/></g><g class="edgeLabels"><g class="edgeLabel"><g class="label" data-id="L_WEB_GW_0" transform="translate(0, 0)"><foreignObject width="0" height="0"><div xmlns="http://www.w3.org/1999/xhtml" class="labelBkg" style="display: table-cell; white-space: nowrap; line-height: 1.5; max-width: 200px; text-align: center;"><span class="edgeLabel"></span></div></foreignObject></g></g><g class="edgeLabel"><g class="label" data-id="L_EXT_GW_0" transform="translate(0, 0)"><foreignObject width="0" height="0"><div xmlns="http://www.w3.org/1999/xhtml" class="labelBkg" style="display: table-cell; white-space: nowrap; line-height: 1.5; max-width: 200px; text-align: center;"><span class="edgeLabel"></span></div></foreignObject></g></g><g class="edgeLabel"><g class="label" data-id="L_GW_AUTH_0" transform="translate(0, 0)"><foreignObject width="0" height="0"><div xmlns="http://www.w3.org/1999/xhtml" class="labelBkg" style="display: table-cell; white-space: nowrap; line-height: 1.5; max-width: 200px; text-align: center;"><span class="edgeLabel"></span></div></foreignObject></g></g><g class="edgeLabel"><g class="label" data-id="L_AUTH_ORCHESTRATOR_0" transform="translate(0, 0)"><foreignObject width="0" height="0"><div xmlns="http://www.w3.org/1999/xhtml" class="labelBkg" style="display: table-cell; white-space: nowrap; line-height: 1.5; max-width: 200px; text-align: center;"><span class="edgeLabel"></span></div></foreignObject></g></g><g class="edgeLabel"><g class="label" data-id="L_AUTH_SCHEDULER_0" transform="translate(0, 0)"><foreignObject width="0" height="0"><div xmlns="http://www.w3.org/1999/xhtml" class="labelBkg" style="display: table-cell; white-space: nowrap; line-height: 1.5; max-width: 200px; text-align: center;"><span class="edgeLabel"></span></div></foreignObject></g></g><g class="edgeLabel"><g class="label" data-id="L_AUTH_EVALUATOR_0" transform="translate(0, 0)"><foreignObject width="0" height="0"><div xmlns="http://www.w3.org/1999/xhtml" class="labelBkg" style="display: table-cell; white-space: nowrap; line-height: 1.5; max-width: 200px; text-align: center;"><span class="edgeLabel"></span></div></foreignObject></g></g><g class="edgeLabel"><g class="label" data-id="L_AUTH_SOC_CORR_0" transform="translate(0, 0)"><foreignObject width="0" height="0"><div xmlns="http://www.w3.org/1999/xhtml" class="labelBkg" style="display: table-cell; white-space: nowrap; line-height: 1.5; max-width: 200px; text-align: center;"><span class="edgeLabel"></span></div></foreignObject></g></g><g class="edgeLabel"><g class="label" data-id="L_AUTH_CASE_MATCH_0" transform="translate(0, 0)"><foreignObject width="0" height="0"><div xmlns="http://www.w3.org/1999/xhtml" class="labelBkg" style="display: table-cell; white-space: nowrap; line-height: 1.5; max-width: 200px; text-align: center;"><span class="edgeLabel"></span></div></foreignObject></g></g><g class="edgeLabel"><g class="label" data-id="L_AUTH_SANDBOX_MGR_0" transform="translate(0, 0)"><foreignObject width="0" height="0"><div xmlns="http://www.w3.org/1999/xhtml" class="labelBkg" style="display: table-cell; white-space: nowrap; line-height: 1.5; max-width: 200px; text-align: center;"><span class="edgeLabel"></span></div></foreignObject></g></g><g class="edgeLabel"><g class="label" data-id="L_ORCHESTRATOR_PG_0" transform="translate(0, 0)"><foreignObject width="0" height="0"><div xmlns="http://www.w3.org/1999/xhtml" class="labelBkg" style="display: table-cell; white-space: nowrap; line-height: 1.5; max-width: 200px; text-align: center;"><span class="edgeLabel"></span></div></foreignObject></g></g><g class="edgeLabel"><g class="label" data-id="L_SCHEDULER_PG_0" transform="translate(0, 0)"><foreignObject width="0" height="0"><div xmlns="http://www.w3.org/1999/xhtml" class="labelBkg" style="display: table-cell; white-space: nowrap; line-height: 1.5; max-width: 200px; text-align: center;"><span class="edgeLabel"></span></div></foreignObject></g></g><g class="edgeLabel"><g class="label" data-id="L_EVALUATOR_PG_0" transform="translate(0, 0)"><foreignObject width="0" height="0"><div xmlns="http://www.w3.org/1999/xhtml" class="labelBkg" style="display: table-cell; white-space: nowrap; line-height: 1.5; max-width: 200px; text-align: center;"><span class="edgeLabel"></span></div></foreignObject></g></g><g class="edgeLabel"><g class="label" data-id="L_SOC_CORR_ES_0" transform="translate(0, 0)"><foreignObject width="0" height="0"><div xmlns="http://www.w3.org/1999/xhtml" class="labelBkg" style="display: table-cell; white-space: nowrap; line-height: 1.5; max-width: 200px; text-align: center;"><span class="edgeLabel"></span></div></foreignObject></g></g><g class="edgeLabel"><g class="label" data-id="L_CASE_MATCH_PG_0" transform="translate(0, 0)"><foreignObject width="0" height="0"><div xmlns="http://www.w3.org/1999/xhtml" class="labelBkg" style="display: table-cell; white-space: nowrap; line-height: 1.5; max-width: 200px; text-align: center;"><span class="edgeLabel"></span></div></foreignObject></g></g><g class="edgeLabel"><g class="label" data-id="L_SANDBOX_MGR_PG_0" transform="translate(0, 0)"><foreignObject width="0" height="0"><div xmlns="http://www.w3.org/1999/xhtml" class="labelBkg" style="display: table-cell; white-space: nowrap; line-height: 1.5; max-width: 200px; text-align: center;"><span class="edgeLabel"></span></div></foreignObject></g></g><g class="edgeLabel"><g class="label" data-id="L_SCHEDULER_MQ_0" transform="translate(0, 0)"><foreignObject width="0" height="0"><div xmlns="http://www.w3.org/1999/xhtml" class="labelBkg" style="display: table-cell; white-space: nowrap; line-height: 1.5; max-width: 200px; text-align: center;"><span class="edgeLabel"></span></div></foreignObject></g></g><g class="edgeLabel"><g class="label" data-id="L_EVALUATOR_ES_0" transform="translate(0, 0)"><foreignObject width="0" height="0"><div xmlns="http://www.w3.org/1999/xhtml" class="labelBkg" style="display: table-cell; white-space: nowrap; line-height: 1.5; max-width: 200px; text-align: center;"><span class="edgeLabel"></span></div></foreignObject></g></g><g class="edgeLabel"><g class="label" data-id="L_ORCHESTRATOR_TRAFFIC_0" transform="translate(0, 0)"><foreignObject width="0" height="0"><div xmlns="http://www.w3.org/1999/xhtml" class="labelBkg" style="display: table-cell; white-space: nowrap; line-height: 1.5; max-width: 200px; text-align: center;"><span class="edgeLabel"></span></div></foreignObject></g></g><g class="edgeLabel"><g class="label" data-id="L_ORCHESTRATOR_HIDS_0" transform="translate(0, 0)"><foreignObject width="0" height="0"><div xmlns="http://www.w3.org/1999/xhtml" class="labelBkg" style="display: table-cell; white-space: nowrap; line-height: 1.5; max-width: 200px; text-align: center;"><span class="edgeLabel"></span></div></foreignObject></g></g><g class="edgeLabel"><g class="label" data-id="L_ORCHESTRATOR_C2_0" transform="translate(0, 0)"><foreignObject width="0" height="0"><div xmlns="http://www.w3.org/1999/xhtml" class="labelBkg" style="display: table-cell; white-space: nowrap; line-height: 1.5; max-width: 200px; text-align: center;"><span class="edgeLabel"></span></div></foreignObject></g></g><g class="edgeLabel"><g class="label" data-id="L_SANDBOX_MGR_SANDBOX_0" transform="translate(0, 0)"><foreignObject width="0" height="0"><div xmlns="http://www.w3.org/1999/xhtml" class="labelBkg" style="display: table-cell; white-space: nowrap; line-height: 1.5; max-width: 200px; text-align: center;"><span class="edgeLabel"></span></div></foreignObject></g></g><g class="edgeLabel"><g class="label" data-id="L_SOC_CORR_SIEM_0" transform="translate(0, 0)"><foreignObject width="0" height="0"><div xmlns="http://www.w3.org/1999/xhtml" class="labelBkg" style="display: table-cell; white-space: nowrap; line-height: 1.5; max-width: 200px; text-align: center;"><span class="edgeLabel"></span></div></foreignObject></g></g><g class="edgeLabel"><g class="label" data-id="L_GW_MINIO_0" transform="translate(0, 0)"><foreignObject width="0" height="0"><div xmlns="http://www.w3.org/1999/xhtml" class="labelBkg" style="display: table-cell; white-space: nowrap; line-height: 1.5; max-width: 200px; text-align: center;"><span class="edgeLabel"></span></div></foreignObject></g></g></g><g class="nodes"><g class="node default" id="my-svg-flowchart-WEB-0" data-look="classic" transform="translate(1734.6796875, 60)"><rect class="basic label-container" style="" x="-71.6796875" y="-27" width="143.359375" height="54"/><g class="label" style="" transform="translate(-41.6796875, -12)"><rect/><foreignObject width="83.359375" height="24"><div xmlns="http://www.w3.org/1999/xhtml" style="display: table-cell; white-space: nowrap; line-height: 1.5; max-width: 200px; text-align: center;"><span class="nodeLabel"><p>Web 控制台</p></span></div></foreignObject></g></g><g class="node default" id="my-svg-flowchart-EXT-1" data-look="classic" transform="translate(1535, 60)"><rect class="basic label-container" style="" x="-78" y="-27" width="156" height="54"/><g class="label" style="" transform="translate(-48, -12)"><rect/><foreignObject width="96" height="24"><div xmlns="http://www.w3.org/1999/xhtml" style="display: table-cell; white-space: nowrap; line-height: 1.5; max-width: 200px; text-align: center;"><span class="nodeLabel"><p>外部系统接入</p></span></div></foreignObject></g></g><g class="node default" id="my-svg-flowchart-GW-2" data-look="classic" transform="translate(1634.83984375, 226)"><rect class="basic label-container" style="" x="-94" y="-39" width="188" height="78"/><g class="label" style="" transform="translate(-64, -24)"><rect/><foreignObject width="128" height="48"><div xmlns="http://www.w3.org/1999/xhtml" style="display: table-cell; white-space: nowrap; line-height: 1.5; max-width: 200px; text-align: center;"><span class="nodeLabel"><p>统一接入网关<br />统一权限校验入口</p></span></div></foreignObject></g></g><g class="node default" id="my-svg-flowchart-AUTH-3" data-look="classic" transform="translate(1102.09765625, 354)"><rect class="basic label-container" style="" x="-99.6171875" y="-39" width="199.234375" height="78"/><g class="label" style="" transform="translate(-69.6171875, -24)"><rect/><foreignObject width="139.234375" height="48"><div xmlns="http://www.w3.org/1999/xhtml" style="display: table-cell; white-space: nowrap; line-height: 1.5; max-width: 200px; text-align: center;"><span class="nodeLabel"><p>认证与鉴权<br />RBAC + 资源 Grants</p></span></div></foreignObject></g></g><g class="node default" id="my-svg-flowchart-ORCHESTRATOR-4" data-look="classic" transform="translate(338.68359375, 520)"><rect class="basic label-container" style="" x="-78" y="-27" width="156" height="54"/><g class="label" style="" transform="translate(-48, -12)"><rect/><foreignObject width="96" height="24"><div xmlns="http://www.w3.org/1999/xhtml" style="display: table-cell; white-space: nowrap; line-height: 1.5; max-width: 200px; text-align: center;"><span class="nodeLabel"><p>攻击编排引擎</p></span></div></foreignObject></g></g><g class="node default" id="my-svg-flowchart-SCHEDULER-5" data-look="classic" transform="translate(1819.4609375, 520)"><rect class="basic label-container" style="" x="-86" y="-27" width="172" height="54"/><g class="label" style="" transform="translate(-56, -12)"><rect/><foreignObject width="112" height="24"><div xmlns="http://www.w3.org/1999/xhtml" style="display: table-cell; white-space: nowrap; line-height: 1.5; max-width: 200px; text-align: center;"><span class="nodeLabel"><p>链路任务调度器</p></span></div></foreignObject></g></g><g class="node default" id="my-svg-flowchart-EVALUATOR-6" data-look="classic" transform="translate(1605.4609375, 520)"><rect class="basic label-container" style="" x="-78" y="-27" width="156" height="54"/><g class="label" style="" transform="translate(-48, -12)"><rect/><foreignObject width="96" height="24"><div xmlns="http://www.w3.org/1999/xhtml" style="display: table-cell; white-space: nowrap; line-height: 1.5; max-width: 200px; text-align: center;"><span class="nodeLabel"><p>期望评估引擎</p></span></div></foreignObject></g></g><g class="node default" id="my-svg-flowchart-SOC_CORR-7" data-look="classic" transform="translate(1149.44921875, 520)"><rect class="basic label-container" style="" x="-78.4375" y="-27" width="156.875" height="54"/><g class="label" style="" transform="translate(-48.4375, -12)"><rect/><foreignObject width="96.875" height="24"><div xmlns="http://www.w3.org/1999/xhtml" style="display: table-cell; white-space: nowrap; line-height: 1.5; max-width: 200px; text-align: center;"><span class="nodeLabel"><p>SOC 关联分析</p></span></div></foreignObject></g></g><g class="node default" id="my-svg-flowchart-CASE_MATCH-8" data-look="classic" transform="translate(943.01171875, 520)"><rect class="basic label-container" style="" x="-78" y="-27" width="156" height="54"/><g class="label" style="" transform="translate(-48, -12)"><rect/><foreignObject width="96" height="24"><div xmlns="http://www.w3.org/1999/xhtml" style="display: table-cell; white-space: nowrap; line-height: 1.5; max-width: 200px; text-align: center;"><span class="nodeLabel"><p>用例匹配引擎</p></span></div></foreignObject></g></g><g class="node default" id="my-svg-flowchart-SANDBOX_MGR-9" data-look="classic" transform="translate(677.78515625, 520)"><rect class="basic label-container" style="" x="-78" y="-27" width="156" height="54"/><g class="label" style="" transform="translate(-48, -12)"><rect/><foreignObject width="96" height="24"><div xmlns="http://www.w3.org/1999/xhtml" style="display: table-cell; white-space: nowrap; line-height: 1.5; max-width: 200px; text-align: center;"><span class="nodeLabel"><p>沙箱管理服务</p></span></div></foreignObject></g></g><g class="node default" id="my-svg-flowchart-PG-10" data-look="classic" transform="translate(1420.83203125, 697.5475425720215)"><path d="M0,10.741783702858772 a47.0859375,10.741783702858772 0,0,0 94.171875,0 a47.0859375,10.741783702858772 0,0,0 -94.171875,0 l0,73.74178370285877 a47.0859375,10.741783702858772 0,0,0 94.171875,0 l0,-73.74178370285877" class="basic label-container outer-path" style="" transform="translate(-47.0859375, -47.61267555428816)"/><g class="label" style="" transform="translate(-39.5859375, -14)"><rect/><foreignObject width="79.171875" height="48"><div xmlns="http://www.w3.org/1999/xhtml" style="display: table-cell; white-space: nowrap; line-height: 1.5; max-width: 200px; text-align: center;"><span class="nodeLabel"><p>PostgreSQL<br />关系数据</p></span></div></foreignObject></g></g><g class="node default" id="my-svg-flowchart-ES-11" data-look="classic" transform="translate(1621.359375, 697.5475425720215)"><path d="M0,12.69836388239636 a64.515625,12.69836388239636 0,0,0 129.03125,0 a64.515625,12.69836388239636 0,0,0 -129.03125,0 l0,75.69836388239636 a64.515625,12.69836388239636 0,0,0 129.03125,0 l0,-75.69836388239636" class="basic label-container outer-path" style="" transform="translate(-64.515625, -50.54754582359454)"/><g class="label" style="" transform="translate(-57.015625, -14)"><rect/><foreignObject width="114.03125" height="48"><div xmlns="http://www.w3.org/1999/xhtml" style="display: table-cell; white-space: nowrap; line-height: 1.5; max-width: 200px; text-align: center;"><span class="nodeLabel"><p>Elasticsearch<br />全文索引 / 聚合</p></span></div></foreignObject></g></g><g class="node default" id="my-svg-flowchart-MINIO-12" data-look="classic" transform="translate(1882.62109375, 697.5475425720215)"><path d="M0,9.681372549019608 a39.5,9.681372549019608 0,0,0 79,0 a39.5,9.681372549019608 0,0,0 -79,0 l0,72.68137254901961 a39.5,9.681372549019608 0,0,0 79,0 l0,-72.68137254901961" class="basic label-container outer-path" style="" transform="translate(-39.5, -46.02205882352941)"/><g class="label" style="" transform="translate(-32, -14)"><rect/><foreignObject width="64" height="48"><div xmlns="http://www.w3.org/1999/xhtml" style="display: table-cell; white-space: nowrap; line-height: 1.5; max-width: 200px; text-align: center;"><span class="nodeLabel"><p>MinIO<br />对象存储</p></span></div></foreignObject></g></g><g class="node default" id="my-svg-flowchart-MQ-13" data-look="classic" transform="translate(2013.93359375, 697.5475425720215)"><path d="M0,10.020970641102457 a41.8125,10.020970641102457 0,0,0 83.625,0 a41.8125,10.020970641102457 0,0,0 -83.625,0 l0,73.02097064110245 a41.8125,10.020970641102457 0,0,0 83.625,0 l0,-73.02097064110245" class="basic label-container outer-path" style="" transform="translate(-41.8125, -46.531455961653684)"/><g class="label" style="" transform="translate(-34.3125, -14)"><rect/><foreignObject width="68.625" height="48"><div xmlns="http://www.w3.org/1999/xhtml" style="display: table-cell; white-space: nowrap; line-height: 1.5; max-width: 200px; text-align: center;"><span class="nodeLabel"><p>RabbitMQ<br />异步消息</p></span></div></foreignObject></g></g><g class="node default" id="my-svg-flowchart-TRAFFIC-14" data-look="classic" transform="translate(121, 697.5475425720215)"><rect class="basic label-container" style="" x="-78" y="-27" width="156" height="54"/><g class="label" style="" transform="translate(-48, -12)"><rect/><foreignObject width="96" height="24"><div xmlns="http://www.w3.org/1999/xhtml" style="display: table-cell; white-space: nowrap; line-height: 1.5; max-width: 200px; text-align: center;"><span class="nodeLabel"><p>流量回放设备</p></span></div></foreignObject></g></g><g class="node default" id="my-svg-flowchart-HIDS-15" data-look="classic" transform="translate(336.234375, 697.5475425720215)"><rect class="basic label-container" style="" x="-87.234375" y="-27" width="174.46875" height="54"/><g class="label" style="" transform="translate(-57.234375, -12)"><rect/><foreignObject width="114.46875" height="24"><div xmlns="http://www.w3.org/1999/xhtml" style="display: table-cell; white-space: nowrap; line-height: 1.5; max-width: 200px; text-align: center;"><span class="nodeLabel"><p>主机 HIDS Agent</p></span></div></foreignObject></g></g><g class="node default" id="my-svg-flowchart-SIEM-16" data-look="classic" transform="translate(765.8125, 697.5475425720215)"><rect class="basic label-container" style="" x="-103.484375" y="-27" width="206.96875" height="54"/><g class="label" style="" transform="translate(-73.484375, -12)"><rect/><foreignObject width="146.96875" height="24"><div xmlns="http://www.w3.org/1999/xhtml" style="display: table-cell; white-space: nowrap; line-height: 1.5; max-width: 200px; text-align: center;"><span class="nodeLabel"><p>SIEM / SOC 告警系统</p></span></div></foreignObject></g></g><g class="node default" id="my-svg-flowchart-SANDBOX-17" data-look="classic" transform="translate(997.296875, 697.5475425720215)"><rect class="basic label-container" style="" x="-78" y="-27" width="156" height="54"/><g class="label" style="" transform="translate(-48, -12)"><rect/><foreignObject width="96" height="24"><div xmlns="http://www.w3.org/1999/xhtml" style="display: table-cell; white-space: nowrap; line-height: 1.5; max-width: 200px; text-align: center;"><span class="nodeLabel"><p>沙箱执行环境</p></span></div></foreignObject></g></g><g class="node default" id="my-svg-flowchart-C2-18" data-look="classic" transform="translate(1203.296875, 697.5475425720215)"><rect class="basic label-container" style="" x="-78" y="-27" width="156" height="54"/><g class="label" style="" transform="translate(-48, -12)"><rect/><foreignObject width="96" height="24"><div xmlns="http://www.w3.org/1999/xhtml" style="display: table-cell; white-space: nowrap; line-height: 1.5; max-width: 200px; text-align: center;"><span class="nodeLabel"><p>攻击控制框架</p></span></div></foreignObject></g></g></g></g></g><defs><filter id="my-svg-drop-shadow" height="130%" width="130%"><feDropShadow dx="4" dy="4" stdDeviation="0" flood-opacity="0.06" flood-color="#000000"/></filter></defs><defs><filter id="my-svg-drop-shadow-small" height="150%" width="150%"><feDropShadow dx="2" dy="2" stdDeviation="0" flood-opacity="0.06" flood-color="#000000"/></filter></defs></svg>